<svg xmlns="http://www.w3.org/2000/svg" xmlns:xlink="http://www.w3.org/1999/xlink" width="500" zoomAndPan="magnify" viewBox="0 0 375 374.999991" height="500" preserveAspectRatio="xMidYMid meet" version="1.0"><defs><g/><clipPath id="568b6f714f"><path d="M 227.230469 68.3125 L 306.6875 68.3125 L 306.6875 306.683594 L 227.230469 306.683594 Z M 227.230469 68.3125 " clip-rule="nonzero"/></clipPath><clipPath id="3292c04931"><path d="M 227.230469 275.183594 L 227.230469 99.8125 C 227.230469 91.457031 230.550781 83.445312 236.457031 77.539062 C 242.363281 71.628906 250.375 68.3125 258.730469 68.3125 L 275.1875 68.3125 C 283.542969 68.3125 291.554688 71.628906 297.460938 77.539062 C 303.367188 83.445312 306.6875 91.457031 306.6875 99.8125 L 306.6875 275.183594 C 306.6875 283.539062 303.367188 291.550781 297.460938 297.457031 C 291.554688 303.363281 283.542969 306.683594 275.1875 306.683594 L 258.730469 306.683594 C 250.375 306.683594 242.363281 303.363281 236.457031 297.457031 C 230.550781 291.550781 227.230469 283.539062 227.230469 275.183594 Z M 227.230469 275.183594 " clip-rule="nonzero"/></clipPath><clipPath id="06adf24fdc"><path d="M 0.230469 0.3125 L 79.6875 0.3125 L 79.6875 238.683594 L 0.230469 238.683594 Z M 0.230469 0.3125 " clip-rule="nonzero"/></clipPath><clipPath id="d49a69f114"><path d="M 0.230469 207.183594 L 0.230469 31.8125 C 0.230469 23.457031 3.550781 15.445312 9.457031 9.539062 C 15.363281 3.628906 23.375 0.3125 31.730469 0.3125 L 48.1875 0.3125 C 56.542969 0.3125 64.554688 3.628906 70.460938 9.539062 C 76.367188 15.445312 79.6875 23.457031 79.6875 31.8125 L 79.6875 207.183594 C 79.6875 215.539062 76.367188 223.550781 70.460938 229.457031 C 64.554688 235.363281 56.542969 238.683594 48.1875 238.683594 L 31.730469 238.683594 C 23.375 238.683594 15.363281 235.363281 9.457031 229.457031 C 3.550781 223.550781 0.230469 215.539062 0.230469 207.183594 Z M 0.230469 207.183594 " clip-rule="nonzero"/></clipPath><clipPath id="21fef6591b"><rect x="0" width="80" y="0" height="239"/></clipPath><clipPath id="a0b96c8878"><path d="M 227.230469 68.316406 L 306.683594 68.316406 L 306.683594 306.675781 L 227.230469 306.675781 Z M 227.230469 68.316406 " clip-rule="nonzero"/></clipPath><clipPath id="83ee65dbcf"><path d="M 227.230469 275.179688 L 227.230469 99.816406 C 227.230469 91.460938 230.550781 83.449219 236.457031 77.542969 C 242.363281 71.636719 250.375 68.316406 258.730469 68.316406 L 275.183594 68.316406 C 283.539062 68.316406 291.550781 71.636719 297.457031 77.542969 C 303.363281 83.449219 306.683594 91.460938 306.683594 99.816406 L 306.683594 275.179688 C 306.683594 283.53125 303.363281 291.542969 297.457031 297.453125 C 291.550781 303.359375 283.539062 306.675781 275.183594 306.675781 L 258.730469 306.675781 C 250.375 306.675781 242.363281 303.359375 236.457031 297.453125 C 230.550781 291.542969 227.230469 283.53125 227.230469 275.179688 Z M 227.230469 275.179688 " clip-rule="nonzero"/></clipPath><clipPath id="0423d43670"><path d="M 147.773438 68.3125 L 227.230469 68.3125 L 227.230469 306.683594 L 147.773438 306.683594 Z M 147.773438 68.3125 " clip-rule="nonzero"/></clipPath><clipPath id="47b1cc05aa"><path d="M 147.773438 275.183594 L 147.773438 99.8125 C 147.773438 91.457031 151.09375 83.445312 157 77.539062 C 162.90625 71.628906 170.917969 68.3125 179.273438 68.3125 L 195.730469 68.3125 C 204.085938 68.3125 212.097656 71.628906 218.003906 77.539062 C 223.910156 83.445312 227.230469 91.457031 227.230469 99.8125 L 227.230469 275.183594 C 227.230469 283.539062 223.910156 291.550781 218.003906 297.457031 C 212.097656 303.363281 204.085938 306.683594 195.730469 306.683594 L 179.273438 306.683594 C 170.917969 306.683594 162.90625 303.363281 157 297.457031 C 151.09375 291.550781 147.773438 283.539062 147.773438 275.183594 Z M 147.773438 275.183594 " clip-rule="nonzero"/></clipPath><clipPath id="a5c4d2d54d"><path d="M 0.773438 0.3125 L 80.230469 0.3125 L 80.230469 238.683594 L 0.773438 238.683594 Z M 0.773438 0.3125 " clip-rule="nonzero"/></clipPath><clipPath id="56e37a95b2"><path d="M 0.773438 207.183594 L 0.773438 31.8125 C 0.773438 23.457031 4.09375 15.445312 10 9.539062 C 15.90625 3.628906 23.917969 0.3125 32.273438 0.3125 L 48.730469 0.3125 C 57.085938 0.3125 65.097656 3.628906 71.003906 9.539062 C 76.910156 15.445312 80.230469 23.457031 80.230469 31.8125 L 80.230469 207.183594 C 80.230469 215.539062 76.910156 223.550781 71.003906 229.457031 C 65.097656 235.363281 57.085938 238.683594 48.730469 238.683594 L 32.273438 238.683594 C 23.917969 238.683594 15.90625 235.363281 10 229.457031 C 4.09375 223.550781 0.773438 215.539062 0.773438 207.183594 Z M 0.773438 207.183594 " clip-rule="nonzero"/></clipPath><clipPath id="b7126b3d12"><rect x="0" width="81" y="0" height="239"/></clipPath><clipPath id="d65474527f"><path d="M 147.773438 68.316406 L 227.226562 68.316406 L 227.226562 306.675781 L 147.773438 306.675781 Z M 147.773438 68.316406 " clip-rule="nonzero"/></clipPath><clipPath id="86c7b6e3f6"><path d="M 147.773438 275.179688 L 147.773438 99.816406 C 147.773438 91.460938 151.089844 83.449219 157 77.542969 C 162.90625 71.636719 170.917969 68.316406 179.269531 68.316406 L 195.726562 68.316406 C 204.082031 68.316406 212.09375 71.636719 218 77.542969 C 223.90625 83.449219 227.226562 91.460938 227.226562 99.816406 L 227.226562 275.179688 C 227.226562 283.53125 223.90625 291.542969 218 297.453125 C 212.09375 303.359375 204.082031 306.675781 195.726562 306.675781 L 179.269531 306.675781 C 170.917969 306.675781 162.90625 303.359375 157 297.453125 C 151.089844 291.542969 147.773438 283.53125 147.773438 275.179688 Z M 147.773438 275.179688 " clip-rule="nonzero"/></clipPath><clipPath id="e13329f39a"><path d="M 68.316406 68.3125 L 147.773438 68.3125 L 147.773438 306.683594 L 68.316406 306.683594 Z M 68.316406 68.3125 " clip-rule="nonzero"/></clipPath><clipPath id="f6c0a9c208"><path d="M 68.316406 275.183594 L 68.316406 99.8125 C 68.316406 91.457031 71.632812 83.445312 77.542969 77.539062 C 83.449219 71.628906 91.460938 68.3125 99.816406 68.3125 L 116.273438 68.3125 C 124.628906 68.3125 132.640625 71.628906 138.546875 77.539062 C 144.453125 83.445312 147.773438 91.457031 147.773438 99.8125 L 147.773438 275.183594 C 147.773438 283.539062 144.453125 291.550781 138.546875 297.457031 C 132.640625 303.363281 124.628906 306.683594 116.273438 306.683594 L 99.816406 306.683594 C 91.460938 306.683594 83.449219 303.363281 77.542969 297.457031 C 71.632812 291.550781 68.316406 283.539062 68.316406 275.183594 Z M 68.316406 275.183594 " clip-rule="nonzero"/></clipPath><clipPath id="716bdbf5ea"><path d="M 0.316406 0.3125 L 79.773438 0.3125 L 79.773438 238.683594 L 0.316406 238.683594 Z M 0.316406 0.3125 " clip-rule="nonzero"/></clipPath><clipPath id="45e9e6f46b"><path d="M 0.316406 207.183594 L 0.316406 31.8125 C 0.316406 23.457031 3.632812 15.445312 9.542969 9.539062 C 15.449219 3.628906 23.460938 0.3125 31.816406 0.3125 L 48.273438 0.3125 C 56.628906 0.3125 64.640625 3.628906 70.546875 9.539062 C 76.453125 15.445312 79.773438 23.457031 79.773438 31.8125 L 79.773438 207.183594 C 79.773438 215.539062 76.453125 223.550781 70.546875 229.457031 C 64.640625 235.363281 56.628906 238.683594 48.273438 238.683594 L 31.816406 238.683594 C 23.460938 238.683594 15.449219 235.363281 9.542969 229.457031 C 3.632812 223.550781 0.316406 215.539062 0.316406 207.183594 Z M 0.316406 207.183594 " clip-rule="nonzero"/></clipPath><clipPath id="d581c02a21"><rect x="0" width="80" y="0" height="239"/></clipPath><clipPath id="0b81b3e664"><path d="M 68.316406 68.316406 L 147.769531 68.316406 L 147.769531 306.675781 L 68.316406 306.675781 Z M 68.316406 68.316406 " clip-rule="nonzero"/></clipPath><clipPath id="6c04d2199a"><path d="M 68.316406 275.179688 L 68.316406 99.816406 C 68.316406 91.460938 71.632812 83.449219 77.542969 77.542969 C 83.449219 71.636719 91.460938 68.316406 99.8125 68.316406 L 116.269531 68.316406 C 124.625 68.316406 132.636719 71.636719 138.542969 77.542969 C 144.449219 83.449219 147.769531 91.460938 147.769531 99.816406 L 147.769531 275.179688 C 147.769531 283.53125 144.449219 291.542969 138.542969 297.453125 C 132.636719 303.359375 124.625 306.675781 116.269531 306.675781 L 99.8125 306.675781 C 91.460938 306.675781 83.449219 303.359375 77.542969 297.453125 C 71.632812 291.542969 68.316406 283.53125 68.316406 275.179688 Z M 68.316406 275.179688 " clip-rule="nonzero"/></clipPath></defs><rect x="-37.5" width="450" fill="#ffffff" y="-37.499999" height="449.999989" fill-opacity="1"/><rect x="-37.5" width="450" fill="#000000" y="-37.499999" height="449.999989" fill-opacity="1"/><g clip-path="url(#568b6f714f)"><g clip-path="url(#3292c04931)"><g transform="matrix(1, 0, 0, 1, 227, 68)"><g clip-path="url(#21fef6591b)"><g clip-path="url(#06adf24fdc)"><g clip-path="url(#d49a69f114)"><path fill="#ff1fa9" d="M 0.230469 238.683594 L 0.230469 0.3125 L 79.6875 0.3125 L 79.6875 238.683594 Z M 0.230469 238.683594 " fill-opacity="1" fill-rule="nonzero"/></g></g></g></g></g></g><g clip-path="url(#a0b96c8878)"><g clip-path="url(#83ee65dbcf)"><path stroke-linecap="butt" transform="matrix(0, -0.75, 0.75, 0, 227.230346, 306.677617)" fill="none" stroke-linejoin="miter" d="M 41.997243 0.000164229 L 275.814966 0.000164229 C 286.955592 0.000164229 297.637884 4.427248 305.512885 12.302248 C 313.387886 20.177249 317.814969 30.859541 317.814969 42.000167 L 317.814969 63.937668 C 317.814969 75.078294 313.387886 85.760587 305.512885 93.635587 C 297.637884 101.510588 286.955592 105.937671 275.814966 105.937671 L 41.997243 105.937671 C 30.861825 105.937671 20.179533 101.510588 12.299324 93.635587 C 4.424324 85.760587 0.00244828 75.078294 0.00244828 63.937668 L 0.00244828 42.000167 C 0.00244828 30.859541 4.424324 20.177249 12.299324 12.302248 C 20.179533 4.427248 30.861825 0.000164229 41.997243 0.000164229 Z M 41.997243 0.000164229 " stroke="#000000" stroke-width="16" stroke-opacity="1" stroke-miterlimit="4"/></g></g><g clip-path="url(#0423d43670)"><g clip-path="url(#47b1cc05aa)"><g transform="matrix(1, 0, 0, 1, 147, 68)"><g clip-path="url(#b7126b3d12)"><g clip-path="url(#a5c4d2d54d)"><g clip-path="url(#56e37a95b2)"><path fill="#ffcf25" d="M 0.773438 238.683594 L 0.773438 0.3125 L 80.230469 0.3125 L 80.230469 238.683594 Z M 0.773438 238.683594 " fill-opacity="1" fill-rule="nonzero"/></g></g></g></g></g></g><g clip-path="url(#d65474527f)"><g clip-path="url(#86c7b6e3f6)"><path stroke-linecap="butt" transform="matrix(0, -0.75, 0.75, 0, 147.773066, 306.677617)" fill="none" stroke-linejoin="miter" d="M 41.997243 0.000495338 L 275.814966 0.000495338 C 286.955592 0.000495338 297.637884 4.422371 305.512885 12.302579 C 313.387886 20.17758 317.814969 30.859872 317.814969 41.99529 L 317.814969 63.938 C 317.814969 75.078625 313.387886 85.760918 305.512885 93.635918 C 297.637884 101.510919 286.955592 105.938002 275.814966 105.938002 L 41.997243 105.938002 C 30.861825 105.938002 20.179533 101.510919 12.299324 93.635918 C 4.424324 85.760918 0.00244828 75.078625 0.00244828 63.938 L 0.00244828 41.99529 C 0.00244828 30.859872 4.424324 20.17758 12.299324 12.302579 C 20.179533 4.422371 30.861825 0.000495338 41.997243 0.000495338 Z M 41.997243 0.000495338 " stroke="#000000" stroke-width="16" stroke-opacity="1" stroke-miterlimit="4"/></g></g><g clip-path="url(#e13329f39a)"><g clip-path="url(#f6c0a9c208)"><g transform="matrix(1, 0, 0, 1, 68, 68)"><g clip-path="url(#d581c02a21)"><g clip-path="url(#716bdbf5ea)"><g clip-path="url(#45e9e6f46b)"><path fill="#00bf63" d="M 0.316406 238.683594 L 0.316406 0.3125 L 79.773438 0.3125 L 79.773438 238.683594 Z M 0.316406 238.683594 " fill-opacity="1" fill-rule="nonzero"/></g></g></g></g></g></g><g clip-path="url(#0b81b3e664)"><g clip-path="url(#6c04d2199a)"><path stroke-linecap="butt" transform="matrix(0, -0.75, 0.75, 0, 68.315801, 306.677617)" fill="none" stroke-linejoin="miter" d="M 41.997243 0.000807248 L 275.814966 0.000807248 C 286.955592 0.000807248 297.637884 4.422683 305.512885 12.302891 C 313.387886 20.177892 317.814969 30.860184 317.814969 41.995602 L 317.814969 63.938311 C 317.814969 75.078937 313.387886 85.76123 305.512885 93.63623 C 297.637884 101.511231 286.955592 105.938314 275.814966 105.938314 L 41.997243 105.938314 C 30.861825 105.938314 20.179533 101.511231 12.299324 93.63623 C 4.424324 85.76123 0.00244828 75.078937 0.00244828 63.938311 L 0.00244828 41.995602 C 0.00244828 30.860184 4.424324 20.177892 12.299324 12.302891 C 20.179533 4.422683 30.861825 0.000807248 41.997243 0.000807248 Z M 41.997243 0.000807248 " stroke="#000000" stroke-width="16" stroke-opacity="1" stroke-miterlimit="4"/></g></g><g fill="#000000" fill-opacity="1"><g transform="translate(90.129066, 202.500587)"><g><path d="M 0.40625 -28 L 5.6875 -28 L 9.046875 -5.125 L 9.515625 -5.125 L 13.796875 -28 L 22.046875 -28 L 26.3125 -5.125 L 26.796875 -5.125 L 30.15625 -28 L 35.4375 -28 L 31.046875 0 L 22.4375 0 L 18.15625 -22.875 L 17.6875 -22.875 L 13.40625 0 L 4.796875 0 Z M 0.40625 -28 "/></g></g></g><g fill="#000000" fill-opacity="1"><g transform="translate(95.642883, 150.1749)"><g><path d="M 2.484375 -20 L 6.71875 -20 L 9.640625 -18.875 L 9.921875 -19.515625 L 6.953125 -20.84375 L 4.046875 -23.765625 L 6.71875 -26.4375 L 9.640625 -23.515625 L 10.953125 -20.5625 L 11.59375 -20.84375 L 10.484375 -23.765625 L 10.484375 -28 L 14.3125 -28 L 14.3125 -23.765625 L 13.203125 -20.84375 L 13.84375 -20.5625 L 15.15625 -23.515625 L 18.078125 -26.4375 L 20.765625 -23.765625 L 17.84375 -20.84375 L 14.875 -19.515625 L 15.15625 -18.875 L 18.078125 -20 L 22.3125 -20 L 22.3125 -16.15625 L 18.078125 -16.15625 L 15.15625 -17.28125 L 14.875 -16.640625 L 17.84375 -15.3125 L 20.765625 -12.40625 L 18.078125 -9.71875 L 15.15625 -12.640625 L 13.84375 -15.59375 L 13.203125 -15.3125 L 14.3125 -12.40625 L 14.3125 -8.15625 L 10.484375 -8.15625 L 10.484375 -12.40625 L 11.59375 -15.3125 L 10.953125 -15.59375 L 9.640625 -12.640625 L 6.71875 -9.71875 L 4.046875 -12.40625 L 6.953125 -15.3125 L 9.921875 -16.640625 L 9.640625 -17.28125 L 6.71875 -16.15625 L 2.484375 -16.15625 Z M 2.484375 -20 "/></g></g></g><g fill="#000000" fill-opacity="1"><g transform="translate(176.061687, 202.500587)"><g><path d="M 0.3125 -28 L 22.5625 -28 L 22.5625 -23.203125 L 14.078125 -23.203125 L 14.078125 0 L 8.796875 0 L 8.796875 -23.203125 L 0.3125 -23.203125 Z M 0.3125 -28 "/></g></g></g><g fill="#000000" fill-opacity="1"><g transform="translate(256.480476, 202.500587)"><g><path d="M 2.3125 -28 L 20.15625 -28 L 20.15625 -23.203125 L 7.59375 -23.203125 L 7.59375 -16.4375 L 19.359375 -16.4375 L 19.359375 -11.640625 L 7.59375 -11.640625 L 7.59375 0 L 2.3125 0 Z M 2.3125 -28 "/></g></g></g></svg>